<svg width="100%" height="100%" viewBox="0 0 25 24" fill="none" xmlns="http://www.w3.org/2000/svg">
<g clip-path="url(#clip0_2021_1795)">
<path d="M12.5 0C19.128 0 24.5 5.37305 24.5 12C24.5 18.628 19.128 24 12.5 24C5.87305 24 0.5 18.6275 0.5 12C0.5 5.37305 5.87305 0 12.5 0Z" fill="#F0B90B"/>
<g clip-path="url(#clip1_2021_1795)">
<path d="M9.78902 7.57L8.25145 6.635L12.5405 4L16.8295 6.635L15.2919 7.57L12.5405 5.955L9.78902 7.57ZM17.9624 9.185V11.14L19.5 10.205V8.25L17.9624 7.315L16.4249 8.25L17.9624 9.185ZM11.0029 8.25L12.5405 9.185L14.078 8.25L12.5405 7.315L11.0029 8.25ZM16.8295 9.865L15.2919 8.93L12.5405 10.545L9.78902 8.93L8.25145 9.865V11.82L11.0029 13.435V16.75L12.5405 17.685L14.078 16.75V13.435L16.8295 11.82V9.865ZM17.9624 15.815L15.2919 17.43V19.385L19.5809 16.75V11.565L17.9624 12.5V15.815ZM15.2919 16.07L16.8295 15.135V13.18L15.2919 14.115V16.07ZM11.0029 18.11V20.065L12.5405 21L14.078 20.065V18.11L12.5405 19.045L11.0029 18.11ZM5.5 10.205L7.03757 11.14V9.185L8.65607 8.25L7.1185 7.315L5.5 8.25V10.205ZM7.1185 12.5L5.58092 11.565V16.75L9.86994 19.385V17.43L7.1185 15.815V12.5ZM9.78902 14.115L8.25145 13.18V15.135L9.78902 16.07V14.115Z" fill="white"/>
</g>
</g>
<defs>
<clipPath id="clip0_2021_1795">
<rect width="24" height="24" fill="white" transform="translate(0.5)"/>
</clipPath>
<clipPath id="clip1_2021_1795">
<rect width="14" height="17" fill="white" transform="translate(5.5 4)"/>
</clipPath>
</defs>
</svg>
