<svg width="25" height="24" viewBox="0 0 25 24" fill="none" xmlns="http://www.w3.org/2000/svg">
<g clip-path="url(#clip0_2021_1724)">
<path d="M12.5 24C19.1274 24 24.5 18.6274 24.5 12C24.5 5.37258 19.1274 0 12.5 0C5.87258 0 0.5 5.37258 0.5 12C0.5 18.6274 5.87258 24 12.5 24Z" fill="#FFC226"/>
<g clip-path="url(#clip1_2021_1724)">
<path d="M16.7859 12.5173C16.37 12.1083 15.7496 11.9072 15.7496 11.9072C15.7496 11.9072 16.3087 11.688 16.5866 11.3722C16.8567 11.1142 17.0422 10.6094 17.0733 10.3782C17.1043 10.1469 17.3097 9.05621 16.578 8.36933C16.0042 7.82139 15.2759 7.54698 14.3586 7.36489L14.646 5.22578L13.3163 5.04714L13.0367 7.12844C12.7476 7.08961 12.4007 7.04301 12.0538 6.99641L12.3334 4.91511L11.0037 4.73647L10.7241 6.81777C9.3944 6.63914 8.12249 6.46827 8.12249 6.46827L7.93609 7.8558C7.93609 7.8558 8.51423 7.93347 8.68767 7.95677C8.91893 7.98784 9.26581 8.03444 9.41595 8.23118C9.5661 8.42792 9.55056 8.54355 9.51173 8.83262C9.46513 9.1795 8.79718 14.1515 8.78165 14.2671C8.76611 14.3828 8.74281 14.5562 8.61165 14.6563C8.48049 14.7564 8.36486 14.7409 8.13361 14.7098C7.84454 14.671 7.32421 14.6011 7.32421 14.6011L6.82544 16.1232C6.82544 16.1232 8.09735 16.2941 9.42707 16.4727L9.1397 18.6118L10.4116 18.7827L10.6912 16.7014C11.0959 16.7558 11.4428 16.8024 11.674 16.8334L11.3944 18.9147L12.7242 19.0934L13.0115 16.9542C13.3584 17.0008 13.6553 16.9819 13.8865 17.0129C14.2412 17.0017 15.1239 17.0026 16.0032 16.591C16.8903 16.1216 17.1724 15.3355 17.2967 14.4105C17.4132 13.5433 17.144 12.9185 16.7859 12.5173ZM11.7941 8.4918C11.7941 8.4918 12.2066 8.48836 12.6113 8.54273C13.016 8.59709 13.3628 8.64369 13.9177 8.8948C14.4147 9.13815 14.7072 9.58945 14.6451 10.052C14.5829 10.5145 14.3629 10.8381 13.9349 10.9571C13.5647 11.084 13.0289 11.1297 12.5586 11.1254C12.0961 11.0632 11.4601 10.9778 11.4601 10.9778L11.7941 8.4918ZM13.9038 15.1318C13.5914 15.2664 12.9399 15.2966 12.354 15.2768C11.7681 15.2569 10.9087 15.0826 10.9087 15.0826L11.2893 12.2497C11.2893 12.2497 12.1064 12.3006 12.7924 12.4516C13.4206 12.5949 13.9754 12.846 14.1912 12.9927C14.4069 13.1394 14.8306 13.4906 14.7451 14.1266C14.6519 14.8203 14.2084 15.055 13.9038 15.1318Z" fill="#131415"/>
</g>
</g>
<defs>
<clipPath id="clip0_2021_1724">
<rect width="24" height="24" fill="white" transform="translate(0.5)"/>
</clipPath>
<clipPath id="clip1_2021_1724">
<rect width="14" height="14" fill="white" transform="translate(6.4942 4.13068) rotate(7.65138)"/>
</clipPath>
</defs>
</svg>
