<svg width="18" height="19" viewBox="0 0 18 19" fill="none" xmlns="http://www.w3.org/2000/svg">
<path d="M2.25 4.95459H3.75H15.75" stroke="#FF2E1F" stroke-width="0.742422" stroke-linecap="round" stroke-linejoin="round"/>
<path d="M6 4.95459V3.45459C6 3.05677 6.15804 2.67523 6.43934 2.39393C6.72064 2.11263 7.10218 1.95459 7.5 1.95459H10.5C10.8978 1.95459 11.2794 2.11263 11.5607 2.39393C11.842 2.67523 12 3.05677 12 3.45459V4.95459M14.25 4.95459V15.4546C14.25 15.8524 14.092 16.2339 13.8107 16.5152C13.5294 16.7966 13.1478 16.9546 12.75 16.9546H5.25C4.85218 16.9546 4.47064 16.7966 4.18934 16.5152C3.90804 16.2339 3.75 15.8524 3.75 15.4546V4.95459H14.25Z" stroke="#FF2E1F" stroke-width="0.742422" stroke-linecap="round" stroke-linejoin="round"/>
</svg>
