<svg width="18" height="18" viewBox="0 0 18 18" fill="none" xmlns="http://www.w3.org/2000/svg">
<g id="17140118641648901281 1" clip-path="url(#clip0_243_383)">
<g id="Group">
<path id="Vector" d="M9.00065 0C4.03822 0 0 4.03822 0 9.00065C0 13.9633 4.03822 18 9.00065 18C13.9631 18 18 13.9633 18 9.00065C18 4.03822 13.9631 0 9.00065 0ZM11.6475 12.0561C11.3969 12.4045 11.0415 12.6797 10.5907 12.8738C10.2855 13.0053 9.94582 13.0925 9.57927 13.1333V14.2076C9.57927 14.5512 9.29978 14.8307 8.95615 14.8307C8.61251 14.8307 8.33285 14.5512 8.33285 14.2076V13.1261C7.64885 13.0569 6.99153 12.8873 6.37675 12.6214C6.26204 12.5738 6.16402 12.4935 6.08727 12.3835C6.00938 12.2721 5.96995 12.15 5.96995 12.0209C5.96995 11.8548 6.02722 11.7087 6.13996 11.5863C6.25287 11.4621 6.40669 11.3961 6.58391 11.3961C6.67947 11.3961 6.77209 11.4156 6.85898 11.4539C7.3242 11.6612 7.81904 11.7959 8.33285 11.8551V9.58336C8.0082 9.48796 7.72544 9.39338 7.49095 9.30175C7.1028 9.15022 6.76456 8.92015 6.48573 8.61807C6.19462 8.30291 6.04702 7.88122 6.04702 7.36494C6.04702 6.91773 6.16664 6.50553 6.40244 6.1398C6.63807 5.77473 6.98793 5.48149 7.44202 5.26811C7.7076 5.14325 8.00656 5.0544 8.33269 5.00351V3.79211C8.33269 3.44847 8.61218 3.16898 8.95598 3.16898C9.29962 3.16898 9.57911 3.44847 9.57911 3.79211V4.96816C10.1955 5.00989 10.7725 5.12918 11.2965 5.32293C11.5668 5.42013 11.7106 5.62516 11.7106 5.91545C11.7106 6.07173 11.6571 6.21425 11.5516 6.3396C11.4406 6.47116 11.2871 6.54071 11.1081 6.54071C11.0432 6.54071 10.9658 6.52255 10.8718 6.48524C10.4559 6.34173 10.0201 6.25074 9.57927 6.21622V8.53855C9.9972 8.64884 10.352 8.76044 10.6351 8.87105C11.0134 9.01915 11.3416 9.25249 11.6108 9.56455C11.8885 9.88691 12.0294 10.3217 12.0294 10.8569C12.0296 11.2996 11.9009 11.7029 11.6475 12.0561Z" fill="black"/>
<path id="Vector_2" d="M9.96708 10.0511C9.86154 10.0141 9.73357 9.97339 9.5791 9.92773V11.8485C10.342 11.7346 10.7136 11.3875 10.7136 10.7911C10.7136 10.6189 10.6508 10.4795 10.5213 10.3645C10.374 10.2334 10.1877 10.128 9.96708 10.0511Z" fill="black"/>
<path id="Vector_3" d="M7.37402 7.28866C7.37402 7.50761 7.44193 7.6791 7.58135 7.81279C7.73582 7.96023 7.93415 8.07755 8.17061 8.16101C8.22281 8.17917 8.27713 8.19717 8.33326 8.21501V6.29932C8.14917 6.34923 7.98357 6.41844 7.83891 6.50599C7.52604 6.69548 7.37402 6.95141 7.37402 7.28866Z" fill="black"/>
<path id="Vector_4" d="M10.6348 8.87069C10.3517 8.76024 9.99698 8.64847 9.57905 8.53818V6.21618C10.0201 6.25071 10.4557 6.34169 10.8716 6.4852C10.9655 6.52267 11.0428 6.54067 11.1079 6.54067C11.2871 6.54067 11.4404 6.47113 11.5514 6.33956C11.6569 6.21422 11.7104 6.07169 11.7104 5.91542C11.7104 5.62513 11.5667 5.42009 11.2963 5.32289C10.7723 5.12898 10.1951 5.00985 9.57889 4.96813V3.79207C9.57889 3.44844 9.2994 3.16895 8.95576 3.16895C8.61213 3.16895 8.33247 3.44844 8.33247 3.79207V5.00347C8.00634 5.05436 7.70738 5.14322 7.4418 5.26807C6.98771 5.48145 6.63785 5.77469 6.40222 6.13976C6.16642 6.50549 6.0468 6.91769 6.0468 7.36491C6.0468 7.88118 6.1944 8.30271 6.48551 8.61804C6.76434 8.92011 7.10258 9.15002 7.49073 9.30171C7.72522 9.39335 8.00798 9.48793 8.33264 9.58333V11.8551C7.81882 11.7959 7.32398 11.6612 6.85876 11.4539C6.77187 11.4156 6.67925 11.3961 6.58369 11.3961C6.40647 11.3961 6.25265 11.462 6.13974 11.5862C6.027 11.7086 5.96973 11.8548 5.96973 12.0209C5.96973 12.15 6.00933 12.272 6.08705 12.3835C6.16364 12.4934 6.26182 12.5738 6.37653 12.6214C6.99131 12.8873 7.64864 13.057 8.33264 13.1261V14.2075C8.33264 14.5512 8.61213 14.8307 8.95593 14.8307C9.29956 14.8307 9.57905 14.5512 9.57905 14.2075V13.1333C9.9456 13.0923 10.2853 13.0053 10.5905 12.8737C11.0411 12.6797 11.3967 12.4046 11.6473 12.056C11.9007 11.7029 12.0292 11.2995 12.0292 10.8569C12.0292 10.3217 11.8885 9.88671 11.6106 9.56451C11.3414 9.25213 11.013 9.01894 10.6348 8.87069ZM8.33264 8.21467C8.27651 8.197 8.22218 8.179 8.16998 8.16067C7.93369 8.07705 7.73536 7.95989 7.58073 7.81245C7.44114 7.67876 7.3734 7.50744 7.3734 7.28833C7.3734 6.95124 7.52542 6.69514 7.83829 6.50565C7.98294 6.41811 8.14854 6.34889 8.33264 6.29898V8.21467ZM9.57905 11.8482V9.92745C9.73353 9.97311 9.86165 10.0139 9.96704 10.0508C10.1878 10.1277 10.3742 10.2331 10.5213 10.3642C10.6507 10.4792 10.7135 10.6187 10.7135 10.7908C10.7134 11.3873 10.3419 11.7343 9.57905 11.8482Z" fill="white"/>
</g>
</g>
<defs>
<clipPath id="clip0_243_383">
<rect width="18" height="18" fill="white"/>
</clipPath>
</defs>
</svg>
