<svg width="100%" height="100%" viewBox="0 0 25 24" fill="none" xmlns="http://www.w3.org/2000/svg">
<path d="M17.5 3.0061C17.7626 2.74346 18.0744 2.53512 18.4176 2.39297C18.7608 2.25083 19.1286 2.17767 19.5 2.17767C19.8714 2.17767 20.2392 2.25083 20.5824 2.39297C20.9256 2.53512 21.2374 2.74346 21.5 3.0061C21.7626 3.26874 21.971 3.58055 22.1131 3.92371C22.2553 4.26687 22.3284 4.63467 22.3284 5.0061C22.3284 5.37753 22.2553 5.74533 22.1131 6.08849C21.971 6.43165 21.7626 6.74346 21.5 7.0061L8 20.5061L2.5 22.0061L4 16.5061L17.5 3.0061Z" stroke="#020303" stroke-linecap="round" stroke-linejoin="round"/>
</svg>
