<svg width="100%" height="100%" viewBox="0 0 27 26" fill="none" xmlns="http://www.w3.org/2000/svg">
<circle cx="13.5" cy="13" r="13" fill="#07795B"/>
<g clip-path="url(#clip0_2021_8533)">
<path d="M9.30078 14.4141C9.88642 14.4141 10.4578 14.2189 10.9196 13.8618L7.20581 10.148C6.31068 11.305 6.52494 12.9715 7.68194 13.8666C8.14854 14.2189 8.71514 14.4141 9.30078 14.4141Z" fill="white"/>
<path d="M20.3469 11.7621C20.3469 11.1765 20.1517 10.6051 19.7946 10.1432L16.0808 13.8571C17.2378 14.7522 18.8995 14.5379 19.7946 13.3809C20.1517 12.9191 20.3469 12.3477 20.3469 11.7621Z" fill="white"/>
<path d="M22.2181 7.71973L20.5754 9.36238C21.899 10.9479 21.6895 13.3095 20.104 14.6331C18.7137 15.7949 16.6949 15.7949 15.3046 14.6331L13.5001 16.4377L11.7003 14.6379C10.1148 15.9615 7.75321 15.752 6.42957 14.1665C5.26781 12.7762 5.26781 10.7574 6.42957 9.36714L5.58682 8.52439L4.78692 7.71973C3.82037 9.31 3.31091 11.1383 3.31091 13C3.31091 18.6279 7.87224 23.1892 13.5001 23.1892C19.128 23.1892 23.6893 18.6279 23.6893 13C23.6941 11.1383 23.1798 9.31 22.2181 7.71973Z" fill="white"/>
<path d="M20.8707 5.96759C16.9902 1.89667 10.5434 1.74431 6.47248 5.62477C6.35344 5.73904 6.23917 5.85332 6.12966 5.96759C5.87731 6.23422 5.63925 6.51038 5.41547 6.80082L13.5002 14.8903L21.5849 6.80082C21.3658 6.51038 21.123 6.23422 20.8707 5.96759ZM13.5002 4.14401C15.8808 4.14401 18.0996 5.06294 19.766 6.73892L13.5002 13.0048L7.23428 6.73892C8.90074 5.06294 11.1195 4.14401 13.5002 4.14401Z" fill="white"/>
</g>
<defs>
<clipPath id="clip0_2021_8533">
<rect width="20.3784" height="20.3784" fill="white" transform="translate(3.31073 2.81079)"/>
</clipPath>
</defs>
</svg>
