<svg width="100%" height="100%" viewBox="0 0 25 24" fill="none" xmlns="http://www.w3.org/2000/svg">
<g clip-path="url(#clip0_2021_1736)">
<path d="M12.5 0C19.128 0 24.5 5.37305 24.5 12C24.5 18.628 19.128 24 12.5 24C5.87305 24 0.5 18.6275 0.5 12C0.5 5.37305 5.87305 0 12.5 0Z" fill="#8247E5"/>
<path d="M16.3079 9.70216C16.0439 9.54842 15.7 9.54842 15.4095 9.70216L13.3484 10.8807L11.9477 11.6486L9.88662 12.828C9.62256 12.9818 9.27899 12.9818 8.98823 12.828L7.35078 11.9056C7.08673 11.7518 6.90159 11.4702 6.90159 11.1627V9.34363C6.90018 9.19028 6.94144 9.03957 7.02076 8.90832C7.10009 8.77708 7.21435 8.67049 7.35078 8.60046L8.96271 7.70383C9.22677 7.55009 9.57033 7.55009 9.86109 7.70383L11.473 8.60046C11.7371 8.7542 11.9222 9.03615 11.9222 9.34334V10.5219L13.3229 9.72769V8.54911C13.3244 8.39549 13.283 8.2445 13.2034 8.11308C13.1239 7.98165 13.0093 7.87499 12.8725 7.80506L9.88662 6.11509C9.62256 5.96164 9.27899 5.96164 8.98823 6.11509L5.94952 7.80506C5.81308 7.87502 5.69878 7.98155 5.61941 8.11274C5.54003 8.24393 5.4987 8.39461 5.50003 8.54794V11.9569C5.4987 12.1103 5.54003 12.2609 5.61941 12.3921C5.69878 12.5233 5.81308 12.6298 5.94952 12.6998L8.98823 14.3909C9.25229 14.5447 9.59586 14.5447 9.88662 14.3909L11.9477 13.2379L13.3484 12.4437L15.4095 11.2906C15.6736 11.1369 16.0172 11.1369 16.3079 11.2906L17.9198 12.1875C18.1839 12.3413 18.369 12.6229 18.369 12.9304V14.7495C18.3703 14.9027 18.3289 15.0533 18.2496 15.1844C18.1703 15.3155 18.0561 15.422 17.9198 15.4921L16.3079 16.4142C16.0439 16.568 15.7 16.568 15.4095 16.4142L13.7976 15.5176C13.5335 15.3639 13.3484 15.0819 13.3484 14.7747V13.5967L11.9477 14.3909V15.5695C11.9462 15.723 11.9875 15.874 12.0668 16.0054C12.1462 16.1368 12.2606 16.2435 12.3972 16.3136L15.4359 18.0036C15.7 18.157 16.0436 18.157 16.3343 18.0036L19.373 16.3136C19.6371 16.1598 19.8222 15.8782 19.8222 15.5707V12.1617C19.8236 12.0084 19.7824 11.8577 19.703 11.7265C19.6237 11.5954 19.5094 11.4888 19.373 11.4188L16.3079 9.70216Z" fill="white"/>
</g>
<defs>
<clipPath id="clip0_2021_1736">
<rect width="24" height="24" fill="white" transform="translate(0.5)"/>
</clipPath>
</defs>
</svg>
