<svg width="100%" height="100%" viewBox="0 0 25 24" fill="none" xmlns="http://www.w3.org/2000/svg">
<path d="M12.5 13.0061C13.0523 13.0061 13.5 12.5584 13.5 12.0061C13.5 11.4538 13.0523 11.0061 12.5 11.0061C11.9477 11.0061 11.5 11.4538 11.5 12.0061C11.5 12.5584 11.9477 13.0061 12.5 13.0061Z" stroke="#777F88" stroke-width="2" stroke-linecap="round" stroke-linejoin="round"/>
<path d="M12.5 6.0061C13.0523 6.0061 13.5 5.55839 13.5 5.0061C13.5 4.45382 13.0523 4.0061 12.5 4.0061C11.9477 4.0061 11.5 4.45382 11.5 5.0061C11.5 5.55839 11.9477 6.0061 12.5 6.0061Z" stroke="#777F88" stroke-width="2" stroke-linecap="round" stroke-linejoin="round"/>
<path d="M12.5 20.0061C13.0523 20.0061 13.5 19.5584 13.5 19.0061C13.5 18.4538 13.0523 18.0061 12.5 18.0061C11.9477 18.0061 11.5 18.4538 11.5 19.0061C11.5 19.5584 11.9477 20.0061 12.5 20.0061Z" stroke="#777F88" stroke-width="2" stroke-linecap="round" stroke-linejoin="round"/>
</svg>
