<svg width="100%" height="100%" viewBox="0 0 125 121" fill="none" xmlns="http://www.w3.org/2000/svg">
<path d="M61.2732 109.608C51.5605 109.406 42.126 106.328 34.1628 100.763C26.1995 95.1987 20.0651 87.3978 16.5353 78.347C13.0055 69.2962 12.2389 59.4019 14.3323 49.9154C16.4258 40.4288 21.2853 31.7761 28.2964 25.0514C35.3074 18.3267 44.1552 13.832 53.7207 12.1358C63.2863 10.4395 73.14 11.6179 82.0358 15.5218C90.9317 19.4258 98.4701 25.88 103.698 34.0683C108.926 42.2565 111.608 51.8111 111.405 61.5238" stroke="#F1F6FD" stroke-width="15.718"/>
<path d="M111.405 61.524C111.203 71.2367 108.124 80.6712 102.56 88.6344C96.9955 96.5977 89.1947 102.732 80.1438 106.262C71.093 109.792 61.1987 110.558 51.7122 108.465C42.2257 106.371 33.5729 101.512 26.8482 94.5009M17.3187 40.7614C21.2226 31.8655 27.6768 24.3271 35.8651 19.0994" stroke="#F1F6FD" stroke-width="15.718" stroke-linecap="round"/>
<path d="M17.319 40.7611C21.223 31.8653 27.6772 24.3268 35.8655 19.0991" stroke="#5E94DF" stroke-width="15.718" stroke-linecap="round"/>
</svg>
