<svg width="14" height="14" viewBox="0 0 14 14" fill="none" xmlns="http://www.w3.org/2000/svg">
<g clip-path="url(#clip0_111_1371)">
<path d="M1.75 6.41667H6.41667V1.75H1.75V6.41667ZM2.91667 2.91667H5.25V5.25H2.91667V2.91667Z" fill="black"/>
<path d="M1.75 12.2499H6.41667V7.58325H1.75V12.2499ZM2.91667 8.74992H5.25V11.0833H2.91667V8.74992Z" fill="black"/>
<path d="M7.58301 1.75V6.41667H12.2497V1.75H7.58301ZM11.083 5.25H8.74967V2.91667H11.083V5.25Z" fill="black"/>
<path d="M12.2497 11.0833H11.083V12.2499H12.2497V11.0833Z" fill="black"/>
<path d="M8.74967 7.58325H7.58301V8.74992H8.74967V7.58325Z" fill="black"/>
<path d="M9.91667 8.75H8.75V9.91667H9.91667V8.75Z" fill="black"/>
<path d="M8.74967 9.91675H7.58301V11.0834H8.74967V9.91675Z" fill="black"/>
<path d="M9.91667 11.0833H8.75V12.2499H9.91667V11.0833Z" fill="black"/>
<path d="M11.0837 9.91675H9.91699V11.0834H11.0837V9.91675Z" fill="black"/>
<path d="M11.0837 7.58325H9.91699V8.74992H11.0837V7.58325Z" fill="black"/>
<path d="M12.2497 8.75H11.083V9.91667H12.2497V8.75Z" fill="black"/>
</g>
<defs>
<clipPath id="clip0_111_1371">
<rect width="14" height="14" fill="white"/>
</clipPath>
</defs>
</svg>
