<svg width="17" height="17" viewBox="0 0 17 17" fill="none" xmlns="http://www.w3.org/2000/svg">
<path d="M10.2499 4.24994C10.0972 4.40572 10.0117 4.61515 10.0117 4.83328C10.0117 5.0514 10.0972 5.26083 10.2499 5.41661L11.5832 6.74994C11.739 6.90263 11.9484 6.98816 12.1665 6.98816C12.3847 6.98816 12.5941 6.90263 12.7499 6.74994L15.8915 3.60828C16.3106 4.53427 16.4374 5.56597 16.2553 6.5659C16.0731 7.56582 15.5905 8.48648 14.8718 9.20517C14.1531 9.92387 13.2324 10.4065 12.2325 10.5887C11.2326 10.7708 10.2009 10.644 9.27488 10.2249L3.51655 15.9833C3.18503 16.3148 2.73539 16.501 2.26655 16.501C1.79771 16.501 1.34807 16.3148 1.01655 15.9833C0.685026 15.6518 0.498779 15.2021 0.498779 14.7333C0.498779 14.2644 0.685026 13.8148 1.01655 13.4833L6.77488 7.72494C6.35585 6.79895 6.22898 5.76725 6.41116 4.76732C6.59335 3.7674 7.07595 2.84674 7.79465 2.12804C8.51334 1.40935 9.434 0.92675 10.4339 0.744561C11.4339 0.562372 12.4656 0.689246 13.3915 1.10828L10.2582 4.24161L10.2499 4.24994Z" stroke="currentColor" stroke-width="0.833333" stroke-linecap="round" stroke-linejoin="round"/>
</svg>
