<svg width="14" height="14" viewBox="0 0 14 14" fill="none" xmlns="http://www.w3.org/2000/svg">
<g id="7387575681552644366 1" clip-path="url(#clip0_153_112)">
<path id="Vector" fill-rule="evenodd" clip-rule="evenodd" d="M0.894531 11.2966C0.894531 12.2812 1.69071 13.0773 2.6753 13.0773C3.16612 13.0773 3.62425 12.8915 3.94723 12.5685L7.19327 9.32002L8.06329 10.19C7.94619 10.6174 8.05822 11.0957 8.39663 11.4365L9.65839 12.6983C10.162 13.1995 10.9683 13.2045 11.4645 12.7084C11.9606 12.2122 11.9556 11.4061 11.4543 10.9023L10.1925 9.64054C9.85162 9.30216 9.37338 9.19035 8.9461 9.30739L8.07608 8.43964L8.63561 7.88012C9.82605 8.18034 11.1387 7.86727 12.0674 6.95926C12.7059 6.33346 13.0572 5.53971 13.1053 4.71814V4.67493C13.1053 4.39745 12.8763 4.17359 12.5941 4.17359C12.454 4.17359 12.3268 4.22976 12.2327 4.31866L12.0828 4.46625L11.5688 4.96983C11.2456 5.28533 10.7853 5.47092 10.2892 5.47092C9.79576 5.47092 9.36056 5.25481 9.03755 4.93679C8.71961 4.61386 8.5009 4.17611 8.5009 3.68272C8.5009 3.18665 8.68654 2.72627 9.00202 2.40307L9.5056 1.88904L9.65313 1.73922C9.74217 1.64505 9.7982 1.51785 9.7982 1.37774C9.7982 1.09552 9.57442 0.866455 9.29688 0.866455H9.25365C8.43213 0.914643 7.63842 1.26596 7.01259 1.90444C6.10455 2.83306 5.79403 4.14576 6.09413 5.3338L5.5322 5.89573L3.18404 3.54533V2.90166L1.6577 2.13844L0.894531 2.90161L1.6577 4.42797H2.29865L4.64928 6.77614L1.40329 10.0246C1.08037 10.3476 0.894531 10.8058 0.894531 11.2966ZM2.16646 11.1694C2.16646 10.8184 2.45142 10.5335 2.80245 10.5335C3.15352 10.5335 3.43842 10.8184 3.43842 11.1694C3.43842 11.5204 3.15352 11.8054 2.80245 11.8054C2.45144 11.8054 2.16646 11.5204 2.16646 11.1694Z" fill="white"/>
</g>
<defs>
<clipPath id="clip0_153_112">
<rect width="14" height="14" fill="white"/>
</clipPath>
</defs>
</svg>
