<svg width="19" height="19" viewBox="0 0 19 19" fill="none" xmlns="http://www.w3.org/2000/svg">
<g id="6179984411664290359 1" clip-path="url(#clip0_241_290)">
<path id="Vector" d="M18.1865 9.54541C18.1865 4.57485 14.1571 0.54541 9.18652 0.54541C4.21596 0.54541 0.186523 4.57485 0.186523 9.54541C0.186523 14.516 4.21596 18.5454 9.18652 18.5454C14.1571 18.5454 18.1865 14.516 18.1865 9.54541Z" fill="black"/>
<path id="Vector_2" d="M7.95927 14.0454C6.15927 14.0454 4.68652 12.5727 4.68652 10.7727C4.68652 8.97267 6.15927 7.49997 7.95927 7.49997C9.75927 7.49997 11.232 8.97267 11.232 10.7727C11.232 12.5727 9.75927 14.0454 7.95927 14.0454ZM7.95927 8.31815C6.60927 8.31815 5.50471 9.42267 5.50471 10.7727C5.50471 12.1227 6.60927 13.2272 7.95927 13.2272C9.30927 13.2272 10.4138 12.1227 10.4138 10.7727C10.4138 9.42267 9.30927 8.31815 7.95927 8.31815ZM12.4593 10.7318C12.3365 10.7318 12.2547 10.6909 12.1729 10.609C12.0093 10.4454 12.0093 10.2 12.1729 10.0363C12.6229 9.58634 12.8683 8.97267 12.8683 8.31815C12.8683 6.96815 11.7638 5.8636 10.4138 5.8636C9.75927 5.8636 9.1456 6.10904 8.6956 6.55904C8.53197 6.72267 8.28652 6.72267 8.1229 6.55904C7.95927 6.39541 7.95927 6.14997 8.1229 5.98634C8.73652 5.37267 9.55471 5.04541 10.4138 5.04541C12.2138 5.04541 13.6865 6.51815 13.6865 8.31815C13.6865 9.17722 13.3593 9.99541 12.7456 10.609C12.6638 10.6909 12.582 10.7318 12.4593 10.7318Z" fill="white"/>
</g>
<defs>
<clipPath id="clip0_241_290">
<rect width="18.4286" height="18" fill="white" transform="translate(0 0.54541)"/>
</clipPath>
</defs>
</svg>
