<svg width="11" height="15" viewBox="0 0 11 15" fill="none" xmlns="http://www.w3.org/2000/svg">
<g id="12548611721556258237 1" clip-path="url(#clip0_152_1330)">
<g id="Icons">
<g id="Rounded">
<g id="Action">
<g id="-Round-/-Action-/-delete_forever">
<g id="Group">
<path id="&#240;&#159;&#148;&#185;Icon-Color" fill-rule="evenodd" clip-rule="evenodd" d="M0.889106 12.9444C0.889106 13.8 1.58911 14.5 2.44466 14.5H8.66688C9.52244 14.5 10.2224 13.8 10.2224 12.9444V5.16667C10.2224 4.31111 9.52244 3.61111 8.66688 3.61111H2.44466C1.58911 3.61111 0.889106 4.31111 0.889106 5.16667V12.9444ZM3.35466 6.85444C3.65799 6.55111 4.14799 6.55111 4.45133 6.85444L5.55577 7.95889L6.66022 6.85444C6.96355 6.55111 7.45355 6.55111 7.75688 6.85444C8.06022 7.15778 8.06022 7.64778 7.75688 7.95111L6.65244 9.05556L7.75688 10.16C8.06022 10.4633 8.06022 10.9533 7.75688 11.2567C7.45355 11.56 6.96355 11.56 6.66022 11.2567L5.55577 10.1522L4.45133 11.2567C4.14799 11.56 3.65799 11.56 3.35466 11.2567C3.05133 10.9533 3.05133 10.4633 3.35466 10.16L4.45911 9.05556L3.35466 7.95111C3.05133 7.65556 3.05133 7.15778 3.35466 6.85444ZM8.278 1.27778L7.72577 0.725556C7.58577 0.585556 7.38355 0.5 7.18133 0.5H3.93022C3.72799 0.5 3.52577 0.585556 3.38577 0.725556L2.83355 1.27778H0.889106C0.461328 1.27778 0.111328 1.62778 0.111328 2.05556C0.111328 2.48333 0.461328 2.83333 0.889106 2.83333H10.2224C10.6502 2.83333 11.0002 2.48333 11.0002 2.05556C11.0002 1.62778 10.6502 1.27778 10.2224 1.27778H8.278Z" fill="#1D1D1D"/>
</g>
</g>
</g>
</g>
</g>
</g>
<defs>
<clipPath id="clip0_152_1330">
<rect width="10.8889" height="14" fill="white" transform="translate(0.111328 0.5)"/>
</clipPath>
</defs>
</svg>
