<svg width="18" height="19" viewBox="0 0 18 19" fill="none" xmlns="http://www.w3.org/2000/svg">
<g id="8373934651660758741 1" clip-path="url(#clip0_241_294)">
<path id="Vector" d="M17.4377 9.02791C17.4377 8.38104 16.8359 7.85791 16.099 7.85791H10.9071C10.1646 7.85791 9.56836 8.38104 9.56836 9.02791V10.0685C9.56836 10.2935 9.64148 10.496 9.77086 10.676C9.64711 10.856 9.56836 11.0585 9.56836 11.2835V12.3242C9.56836 12.5492 9.64148 12.7517 9.77086 12.9317C9.64711 13.1117 9.56836 13.3142 9.56836 13.5392V14.5798C9.56836 14.8048 9.64148 15.0073 9.77086 15.1873C9.64711 15.3673 9.56836 15.5698 9.56836 15.7948V16.8354C9.56836 17.4823 10.1702 18.0054 10.9071 18.0054H16.099C16.8415 18.0054 17.4377 17.4823 17.4377 16.8354V15.7948C17.4377 15.5698 17.3646 15.3673 17.2352 15.1873C17.359 15.0073 17.4377 14.8048 17.4377 14.5798V13.5392C17.4377 13.3142 17.3646 13.1117 17.2352 12.9317C17.359 12.7517 17.4377 12.5492 17.4377 12.3242V11.2835C17.4377 11.0585 17.3646 10.856 17.2352 10.676C17.359 10.496 17.4377 10.2935 17.4377 10.0685V9.02791Z" fill="black"/>
<path id="Vector_2" d="M7.09875 10.1079H1.90125C1.16438 10.1079 0.5625 10.631 0.5625 11.2779V12.3185C0.5625 12.5435 0.635625 12.746 0.765 12.926C0.64125 13.106 0.5625 13.3085 0.5625 13.5335V14.5742C0.5625 14.7992 0.635625 15.0017 0.765 15.1817C0.64125 15.3617 0.5625 15.5642 0.5625 15.7892V16.8298C0.5625 17.4767 1.16438 17.9998 1.90125 17.9998H7.09875C7.83562 17.9998 8.4375 17.4767 8.4375 16.8298V15.7892C8.4375 15.5642 8.36438 15.3617 8.235 15.1817C8.35875 15.0017 8.4375 14.7992 8.4375 14.5742V13.5335C8.4375 13.3085 8.36438 13.106 8.235 12.926C8.35875 12.746 8.4375 12.5435 8.4375 12.3185V11.2779C8.4375 10.631 7.83562 10.1079 7.09875 10.1079Z" fill="black"/>
<path id="Vector_3" d="M2.80695 6.96934C2.91945 7.08184 3.06008 7.13246 3.20633 7.13246C3.35258 7.13246 3.4932 7.07621 3.6057 6.96934C3.82508 6.74996 3.82508 6.39559 3.6057 6.17621H10.1251C10.4345 6.17059 10.6876 5.91746 10.6876 5.60809C10.6876 5.29871 10.4345 5.04559 10.1251 5.04559H3.45945L3.62258 4.88246C3.84195 4.66309 3.84195 4.30871 3.62258 4.08934C3.4032 3.86996 3.04883 3.86996 2.82945 4.08934L1.77195 5.14684C1.55258 5.36621 1.55258 5.72059 1.77195 5.93996L2.80695 6.97496V6.96934Z" fill="black"/>
<path id="Vector_4" d="M7.875 3.35785H14.3944C14.175 3.58285 14.175 3.93723 14.3944 4.1566C14.5069 4.2691 14.6475 4.31973 14.7937 4.31973C14.94 4.31973 15.0806 4.26348 15.1931 4.1566L16.2281 3.1216C16.4475 2.90223 16.4475 2.54785 16.2281 2.32848L15.1706 1.27098C14.9512 1.0516 14.5969 1.0516 14.3775 1.27098C14.1581 1.49035 14.1581 1.84473 14.3775 2.0641L14.5406 2.22723H7.875C7.56562 2.22723 7.3125 2.48035 7.3125 2.78973C7.3125 3.0991 7.56562 3.35223 7.875 3.35223V3.35785Z" fill="black"/>
</g>
<defs>
<clipPath id="clip0_241_294">
<rect width="18" height="18" fill="white" transform="translate(0 0.54541)"/>
</clipPath>
</defs>
</svg>
