<svg width="100%" height="100%" viewBox="0 0 25 24" fill="none" xmlns="http://www.w3.org/2000/svg">
<g clip-path="url(#clip0_2021_1768)">
<path d="M12.5 24C19.1274 24 24.5 18.6274 24.5 12C24.5 5.37258 19.1274 0 12.5 0C5.87258 0 0.5 5.37258 0.5 12C0.5 18.6274 5.87258 24 12.5 24Z" fill="#2775CA"/>
<g clip-path="url(#clip1_2021_1768)">
<path d="M11.6021 18.4467V16.9255C10.7957 16.8556 9.98942 16.5922 9.47338 16.2267L9.25836 16.0762L9.84966 14.4205L10.2152 14.6678C10.7689 15.0387 11.4784 15.2483 12.1665 15.2483C13.0158 15.2483 13.591 14.8022 13.591 14.1356C13.591 13.5282 13.1663 13.1089 12.1235 12.6843C10.7366 12.1413 9.45188 11.4156 9.45188 9.79226C9.45188 8.4699 10.3227 7.44856 11.6988 7.11529V5.54565H13.3115V7.00778C13.9726 7.06691 14.5532 7.24967 15.0746 7.55607L15.3272 7.70121L14.7091 9.33535L14.365 9.13645C14.1231 8.99669 13.5587 8.67417 12.661 8.67417C11.7526 8.67417 11.43 9.15796 11.43 9.60949C11.43 10.0933 11.6666 10.4104 13.0588 10.9856C14.2307 11.464 15.5745 12.2435 15.5745 14.0281C15.5745 15.3935 14.6446 16.4901 13.2254 16.8395V18.4467H11.6021Z" fill="white"/>
</g>
<path d="M8.59001 20.482C8.38656 20.8732 7.90248 21.0281 7.52851 20.7945C6.13493 19.9239 4.97059 18.7247 4.1406 17.2973C3.17649 15.6393 2.70321 13.7415 2.77587 11.8249C2.84853 9.90825 3.46413 8.05171 4.55101 6.47141C5.48668 5.11096 6.73847 4.00342 8.19396 3.24083C8.58455 3.03619 9.05552 3.22725 9.22876 3.63275C9.40199 4.03825 9.21146 4.50415 8.82394 4.71454C7.6454 5.35438 6.63088 6.26519 5.8667 7.37629C4.95125 8.70734 4.43275 10.271 4.37155 11.8853C4.31035 13.4997 4.70898 15.0981 5.52102 16.4947C6.19889 17.6604 7.14154 18.6454 8.26825 19.3727C8.63873 19.6118 8.79345 20.0908 8.59001 20.482Z" fill="white"/>
<path d="M16.3886 20.482C16.5921 20.8732 17.0762 21.0281 17.4501 20.7945C18.8437 19.9239 20.0081 18.7247 20.838 17.2973C21.8021 15.6393 22.2754 13.7415 22.2028 11.8249C22.1301 9.90825 21.5145 8.05171 20.4276 6.47141C19.492 5.11096 18.2402 4.00342 16.7847 3.24083C16.3941 3.03619 15.9231 3.22725 15.7499 3.63275C15.5766 4.03825 15.7672 4.50415 16.1547 4.71454C17.3332 5.35438 18.3478 6.26519 19.1119 7.37629C20.0274 8.70734 20.5459 10.271 20.6071 11.8853C20.6683 13.4997 20.2697 15.0981 19.4576 16.4947C18.7798 17.6604 17.8371 18.6454 16.7104 19.3727C16.3399 19.6118 16.1852 20.0908 16.3886 20.482Z" fill="white"/>
</g>
<defs>
<clipPath id="clip0_2021_1768">
<rect width="24" height="24" fill="white" transform="translate(0.5)"/>
</clipPath>
<clipPath id="clip1_2021_1768">
<rect width="12.9011" height="12.9011" fill="white" transform="translate(6.03339 5.54565)"/>
</clipPath>
</defs>
</svg>
