<svg width="25" height="24" viewBox="0 0 25 24" fill="none" xmlns="http://www.w3.org/2000/svg">
<g clip-path="url(#clip0_2021_1763)">
<path d="M12.5 23C18.5751 23 23.5 18.0751 23.5 12C23.5 5.92487 18.5751 1 12.5 1C6.42487 1 1.5 5.92487 1.5 12C1.5 18.0751 6.42487 23 12.5 23Z" fill="white"/>
<path d="M14 10.6V12.1C13.9 12.1 13.5 12.1 12.5 12.1C11.7 12.1 11.2 12.1 11 12.1V10.6C8.10002 10.7 5.90002 11.2 5.90002 11.9C5.90002 12.6 8.10002 13 11 13.2C11.2 13.2 11.7 13.2 12.5 13.2C13.5 13.2 13.9 13.2 14 13.2C16.9 13.1 19.1 12.6 19.1 11.9C19.1 11.2 16.9 10.7 14 10.6Z" fill="#259C77"/>
<path d="M12.5 0C5.9 0 0.5 5.4 0.5 12C0.5 18.6 5.9 24 12.5 24C19.1 24 24.5 18.6 24.5 12C24.5 5.4 19.1 0 12.5 0ZM19.8 12.1C19.8 13.1 17.3 14.6 14 14.8V19.3H11V14.8C7.7 14.6 5.2 13.1 5.2 12.1C5.2 12.1 5.2 12.1 5.2 12C5.2 11.9 5.3 11.8 5.3 11.7C5.9 10.9 8.1 10.2 11 10V8.6H6.9V5.9H18V8.6H13.9V10C16.8 10.2 19 10.8 19.6 11.7C19.7 11.8 19.7 11.9 19.7 12C19.8 12 19.8 12 19.8 12.1Z" fill="#259C77"/>
</g>
<defs>
<clipPath id="clip0_2021_1763">
<rect width="24" height="24" fill="white" transform="translate(0.5)"/>
</clipPath>
</defs>
</svg>
