<svg width="14" height="14" viewBox="0 0 14 14" fill="none" xmlns="http://www.w3.org/2000/svg">
<g id="19100523411556258218 1" clip-path="url(#clip0_153_87)">
<g id="Icons">
<g id="Rounded">
<g id="Action">
<g id="-Round-/-Action-/-account_balance_wallet">
<g id="Group">
<path id="&#240;&#159;&#148;&#185;Icon-Color" fill-rule="evenodd" clip-rule="evenodd" d="M5.15789 9.94736V4.05262C5.15789 3.24209 5.81368 2.57893 6.63158 2.57893H13.2632V1.84209C13.2632 1.03157 12.6 0.368408 11.7895 0.368408H1.47368C0.655789 0.368408 0 1.03157 0 1.84209V12.1579C0 12.9684 0.655789 13.6316 1.47368 13.6316H11.7895C12.6 13.6316 13.2632 12.9684 13.2632 12.1579V11.421H6.63158C5.81368 11.421 5.15789 10.7579 5.15789 9.94736ZM7.36842 4.05262C6.96316 4.05262 6.63158 4.3842 6.63158 4.78946V9.21051C6.63158 9.61578 6.96316 9.94736 7.36842 9.94736H14V4.05262H7.36842ZM9.57895 8.10525C8.96737 8.10525 8.47368 7.61157 8.47368 6.99999C8.47368 6.38841 8.96737 5.89472 9.57895 5.89472C10.1905 5.89472 10.6842 6.38841 10.6842 6.99999C10.6842 7.61157 10.1905 8.10525 9.57895 8.10525Z" fill="white"/>
</g>
</g>
</g>
</g>
</g>
</g>
<defs>
<clipPath id="clip0_153_87">
<rect width="14" height="13.2632" fill="white" transform="translate(0 0.368408)"/>
</clipPath>
</defs>
</svg>
